<?xml version="1.0" encoding="UTF-8"?>
<svg version="1.1" xmlns="http://www.w3.org/2000/svg" width="76" height="69">
<path d="M0 0 C25.08 0 50.16 0 76 0 C76 22.77 76 45.54 76 69 C50.92 69 25.84 69 0 69 C0 46.23 0 23.46 0 0 Z " fill="#797D91" transform="translate(0,0)"/>
<path d="M0 0 C25.08 0 50.16 0 76 0 C76 22.77 76 45.54 76 69 C50.92 69 25.84 69 0 69 C0 46.23 0 23.46 0 0 Z M9.19613647 10.25924683 C7.71510625 12.41460963 7.62012108 13.63698169 7.61181641 16.24023438 C7.60235992 17.09121704 7.59290344 17.94219971 7.5831604 18.81896973 C7.58923309 19.73464722 7.59530579 20.65032471 7.6015625 21.59375 C7.59869232 22.53682007 7.59582214 23.47989014 7.59286499 24.45153809 C7.59082354 26.44539999 7.59635907 28.43928188 7.60888672 30.43310547 C7.62493911 33.48841044 7.60904067 36.54239252 7.58984375 39.59765625 C7.59182617 41.53385709 7.59566981 43.47005711 7.6015625 45.40625 C7.59548981 46.32192749 7.58941711 47.23760498 7.5831604 48.18103027 C7.59261688 49.03201294 7.60207336 49.88299561 7.61181641 50.75976562 C7.61420319 51.50794556 7.61658997 52.25612549 7.61904907 53.02697754 C8.12213212 55.63254712 8.82860164 56.48418328 11 58 C13.45778789 58.45492562 13.45778789 58.45492562 16.25 58.38818359 C17.32121094 58.39764008 18.39242188 58.40709656 19.49609375 58.4168396 C20.65238281 58.41076691 21.80867188 58.40469421 23 58.3984375 C24.78083984 58.40274277 24.78083984 58.40274277 26.59765625 58.40713501 C29.10937985 58.40917777 31.62111928 58.40363322 34.1328125 58.39111328 C37.98473572 58.3750636 41.83560955 58.39095588 45.6875 58.41015625 C48.12500232 58.40817386 50.56250399 58.40433027 53 58.3984375 C54.73443359 58.40754654 54.73443359 58.40754654 56.50390625 58.4168396 C57.57511719 58.40738312 58.64632812 58.39792664 59.75 58.38818359 C60.69359375 58.38579681 61.6371875 58.38341003 62.609375 58.38095093 C65.03125543 58.17324711 65.03125543 58.17324711 66.80386353 56.74075317 C68.28489375 54.58539037 68.37987892 53.36301831 68.38818359 50.75976562 C68.39764008 49.90878296 68.40709656 49.05780029 68.4168396 48.18103027 C68.41076691 47.26535278 68.40469421 46.34967529 68.3984375 45.40625 C68.40274277 43.9916449 68.40274277 43.9916449 68.40713501 42.54846191 C68.40917646 40.55460001 68.40364093 38.56071812 68.39111328 36.56689453 C68.37506089 33.51158956 68.39095933 30.45760748 68.41015625 27.40234375 C68.40817383 25.46614291 68.40433019 23.52994289 68.3984375 21.59375 C68.40451019 20.67807251 68.41058289 19.76239502 68.4168396 18.81896973 C68.40738312 17.96798706 68.39792664 17.11700439 68.38818359 16.24023438 C68.38460342 15.11796448 68.38460342 15.11796448 68.38095093 13.97302246 C67.87786788 11.36745288 67.17139836 10.51581672 65 9 C62.54221211 8.54507438 62.54221211 8.54507438 59.75 8.61181641 C58.67878906 8.60235992 57.60757813 8.59290344 56.50390625 8.5831604 C55.34761719 8.58923309 54.19132812 8.59530579 53 8.6015625 C51.21916016 8.59725723 51.21916016 8.59725723 49.40234375 8.59286499 C46.89062015 8.59082223 44.37888072 8.59636678 41.8671875 8.60888672 C38.01526428 8.6249364 34.16439045 8.60904412 30.3125 8.58984375 C27.87499768 8.59182614 25.43749601 8.59566973 23 8.6015625 C21.26556641 8.59245346 21.26556641 8.59245346 19.49609375 8.5831604 C18.42488281 8.59261688 17.35367187 8.60207336 16.25 8.61181641 C14.83460937 8.61539658 14.83460937 8.61539658 13.390625 8.61904907 C10.96874457 8.82675289 10.96874457 8.82675289 9.19613647 10.25924683 Z " fill="#FEFEFE" transform="translate(0,0)"/>
<path d="M0 0 C4.72976323 1.55062758 7.86010552 5.57601178 11.14990234 9.14233398 C11.92462891 9.94477539 12.69935547 10.7472168 13.49755859 11.57397461 C19.14990234 17.4805243 19.14990234 17.4805243 19.14990234 18.70483398 C5.28990234 18.70483398 -8.57009766 18.70483398 -22.85009766 18.70483398 C-14.88509766 9.41233398 -14.88509766 9.41233398 -11.47509766 5.76733398 C-10.60111328 4.80956055 -9.72712891 3.85178711 -8.82666016 2.86499023 C-5.79986109 0.66837621 -3.78357906 -0.25501735 0 0 Z " fill="#F6F6F7" transform="translate(39.85009765625,34.295166015625)"/>
<path d="M0 0 C13.2 0 26.4 0 40 0 C36.21673948 3.78326052 32.61953758 7.06408186 28.4375 10.3125 C27.87353516 10.76689453 27.30957031 11.22128906 26.72851562 11.68945312 C23.45118367 14.23848909 22.29262514 15 18 15 C16.21655273 13.94604492 16.21655273 13.94604492 14.43359375 12.48046875 C13.78326172 11.95259766 13.13292969 11.42472656 12.46289062 10.88085938 C11.79451172 10.32205078 11.12613281 9.76324219 10.4375 9.1875 C9.76525391 8.64029297 9.09300781 8.09308594 8.40039062 7.52929688 C5.4527413 5.11439053 2.70029782 2.70029782 0 0 Z " fill="#F5F5F7" transform="translate(18,14)"/>
<path d="M0 0 C0 9.24 0 18.48 0 28 C-3.2917475 26.35412625 -4.79705157 25.4470074 -7.234375 22.9609375 C-7.80800781 22.38085938 -8.38164063 21.80078125 -8.97265625 21.203125 C-9.55917969 20.59984375 -10.14570312 19.9965625 -10.75 19.375 C-11.35199219 18.76398437 -11.95398437 18.15296875 -12.57421875 17.5234375 C-14.05405305 16.02011376 -15.52764676 14.51065144 -17 13 C-13.75386944 9.67227909 -10.43656178 6.59881136 -6.8125 3.6875 C-5.52279297 2.64142578 -5.52279297 2.64142578 -4.20703125 1.57421875 C-2 0 -2 0 0 0 Z " fill="#FAFAFB" transform="translate(62,19)"/>
<path d="M0 0 C3.76904401 1.884522 6.92822223 4.08201223 10.25 6.625 C10.80429687 7.04523437 11.35859375 7.46546875 11.9296875 7.8984375 C13.28866663 8.92938719 14.64463835 9.96429911 16 11 C14.68285542 13.91537501 13.26341874 15.9847013 10.99609375 18.234375 C10.42052734 18.80800781 9.84496094 19.38164063 9.25195312 19.97265625 C8.65318359 20.55917969 8.05441406 21.14570312 7.4375 21.75 C6.83486328 22.35199219 6.23222656 22.95398438 5.61132812 23.57421875 C1.14038584 28 1.14038584 28 0 28 C0 18.76 0 9.52 0 0 Z " fill="#FDFDFD" transform="translate(14,19)"/>
</svg>
