<?xml version="1.0" encoding="UTF-8"?>
<svg version="1.1" xmlns="http://www.w3.org/2000/svg" width="77" height="101">
<path d="M0 0 C25.41 0 50.82 0 77 0 C77 33.33 77 66.66 77 101 C51.59 101 26.18 101 0 101 C0 67.67 0 34.34 0 0 Z " fill="#FDFDFD" transform="translate(0,0)"/>
<path d="M0 0 C4.40617281 2.16303029 7.1644597 4.41114924 9 9 C10.84754783 18.54566381 5.08527579 25.39112437 0 33 C-0.39251953 33.59119629 -0.78503906 34.18239258 -1.18945312 34.79150391 C-2.12346424 36.19622698 -3.0612986 37.59840685 -4 39 C-8.93594399 37.35468534 -10.58136625 32.80979008 -13.1875 28.5 C-13.74630859 27.62601563 -14.30511719 26.75203125 -14.88085938 25.8515625 C-18.29177695 20.23750037 -20.26683848 15.62073918 -19 9 C-14.81227876 0.62455752 -8.9059978 -1.28451891 0 0 Z " fill="#797D91" transform="translate(40,19)"/>
<path d="M0 0 C2.71049169 1.3937977 3.88911516 2.63169017 6 5 C6.97631839 9.1715422 6.18564019 10.68673219 4 14.375 C0.45714286 17.475 0.45714286 17.475 -3 17.75 C-6.51767835 17.46297881 -7.15390941 16.87121865 -10.0625 14.4375 C-12 11 -12 11 -12.0625 7.375 C-9.97386921 0.74052573 -6.92329014 -1.07430364 0 0 Z " fill="#F3F4F5" transform="translate(38,24)"/>
<path d="M0 0 C1.39456452 0.00667256 2.78911118 0.01863093 4.18359375 0.03515625 C4.89451172 0.03966797 5.60542969 0.04417969 6.33789062 0.04882812 C8.09899388 0.06064761 9.86005411 0.07858362 11.62109375 0.09765625 C11.74609375 7.72265625 11.74609375 7.72265625 10.62109375 11.09765625 C4.68109375 11.09765625 -1.25890625 11.09765625 -7.37890625 11.09765625 C-4.18314179 0.12090005 -4.18314179 0.12090005 0 0 Z " fill="#7C8094" transform="translate(12.37890625,67.90234375)"/>
<path d="M0 0 C4.95 0 9.9 0 15 0 C19 8.75 19 8.75 19 11 C13.06 11 7.12 11 1 11 C0 7 0 7 0 0 Z " fill="#7C8093" transform="translate(46,68)"/>
<path d="M0 0 C4.95 0 9.9 0 15 0 C17 7 17 7 17 11 C11.06 11 5.12 11 -1 11 C-0.67 7.37 -0.34 3.74 0 0 Z " fill="#7D8195" transform="translate(27,68)"/>
<path d="M0 0 C3.63 0 7.26 0 11 0 C13.03435531 3.72965139 14 5.66905042 14 10 C9.71 10 5.42 10 1 10 C0.67 6.7 0.34 3.4 0 0 Z " fill="#797C91" transform="translate(44,54)"/>
<path d="M0 0 C2.6015625 -0.29296875 2.6015625 -0.29296875 5.625 -0.1875 C7.12933594 -0.14689453 7.12933594 -0.14689453 8.6640625 -0.10546875 C9.43492188 -0.07066406 10.20578125 -0.03585938 11 0 C10.67 3.3 10.34 6.6 10 10 C5.71 10 1.42 10 -3 10 C-2.25 3.375 -2.25 3.375 0 0 Z " fill="#777B90" transform="translate(15,54)"/>
<path d="M0 0 C2.4375 0.8125 2.4375 0.8125 4.4375 2.8125 C4.0625 6.4375 4.0625 6.4375 3.4375 9.8125 C-2.00986842 11.14407895 -2.00986842 11.14407895 -4.4375 9.6875 C-5.94207373 7.17987712 -5.9943188 5.69129197 -5.5625 2.8125 C-3.86282344 0.12880016 -3.19877434 -0.23405666 0 0 Z " fill="#7A7E92" transform="translate(35.5625,27.1875)"/>
<path d="M0 0 C2.34058637 2.12780579 3.70700306 4.11562221 5 7 C3.35 7 1.7 7 0 7 C0 4.69 0 2.38 0 0 Z " fill="#808497" transform="translate(29,57)"/>
<path d="M0 0 C0.33 0 0.66 0 1 0 C1 2.31 1 4.62 1 7 C-0.32 7 -1.64 7 -3 7 C-1.125 1.125 -1.125 1.125 0 0 Z " fill="#7E8295" transform="translate(40,57)"/>
</svg>
